<?xml version="1.0" encoding="utf-8"?>
<!DOCTYPE svg PUBLIC "-//W3C//DTD SVG 1.0//EN" "http://www.w3.org/TR/2001/REC-SVG-20010904/DTD/svg10.dtd">
<svg version="1.0" xmlns="http://www.w3.org/2000/svg" width="2495px" height="707px" viewBox="0 0 2495 707" preserveAspectRatio="xMidYMid meet">
 <g fill="#1e6e96">
  <path d="M1230.61 548.25 c-138.65 -13.38 -221.30 -161.92 -159.84 -287.70 10.40 -21.31 20.92 -36 38.20 -53.41 28.07 -28.20 59.13 -45.09 98.24 -53.80 12.60 -2.73 56.14 -4.81 67.70 -3.25 7.80 1.17 7.54 1.30 -5.98 5.33 -9.36 2.73 -24.69 10.14 -29.24 14.16 -1.82 1.56 -5.85 3.77 -9.10 4.94 -30.02 10.27 -45.74 16.89 -52.11 21.83 -2.60 1.95 -6.11 4.03 -7.80 4.42 -4.55 1.17 -21.31 13.77 -31.45 23.78 -30.02 29.24 -49.12 66.66 -55.62 108.38 -2.21 14.55 -0.78 51.72 2.60 66.14 8.06 35.22 25.08 66.14 50.29 91.22 25.86 25.86 53.80 41.19 90.18 49.90 10.92 2.60 18.45 3.38 37.42 3.90 12.99 0.39 23.52 1.04 23.13 1.30 -0.26 0.39 -6.37 1.43 -13.38 2.47 -13.90 1.95 -26.12 2.08 -43.27 0.39z"/>
  <path d="M1242.30 507.45 c-1.04 -0.26 -6.37 -1.17 -11.70 -1.95 -25.73 -4.29 -52.24 -17.41 -71.34 -35.61 -20.66 -19.75 -33.14 -43.14 -37.81 -70.56 -2.47 -15.33 -6.50 -10.92 -6.50 7.28 l0 7.02 -4.68 -6.11 c-10.66 -14.03 -14.68 -30.28 -10.27 -41.71 2.34 -6.24 10.79 -14.42 15.98 -15.85 2.86 -0.65 2.99 -1.04 2.08 -11.31 -0.39 -5.85 -0.13 -15.98 0.65 -22.87 4.29 -35.61 17.54 -59.65 49.51 -90.05 24.69 -23.52 42.88 -36 61.60 -42.49 3.90 -1.30 10.79 -4.94 15.33 -7.93 4.42 -3.12 12.22 -7.28 17.28 -9.49 8.45 -3.64 10.27 -3.90 24.69 -4.03 15.46 0 15.72 0 25.34 4.81 5.33 2.60 12.73 7.28 16.24 10.27 7.28 6.11 18.97 11.96 22.48 11.31 1.56 -0.39 0.26 -1.82 -4.68 -4.81 -8.58 -5.33 -7.41 -7.15 3.90 -6.37 9.23 0.65 20.01 5.33 28.07 12.09 4.68 4.03 5.20 4.16 20.66 4.94 13.12 0.65 17.41 1.43 24.04 4.16 4.55 1.95 11.96 4.68 16.63 6.11 6.37 1.95 9.75 4.03 13.77 8.19 8.06 8.32 10.27 15.98 10.27 36.26 l0 16.63 -5.07 4.42 c-5.07 4.42 -8.06 6.24 -25.60 16.11 -18.19 10.14 -71.86 23.91 -107.08 27.29 -9.23 0.91 -17.41 2.21 -18.19 2.86 -0.78 0.65 -0.39 1.82 0.78 3.12 1.95 1.82 3.12 1.82 12.86 0 5.98 -1.17 11.05 -1.82 11.44 -1.56 0.26 0.39 -0.13 4.42 -0.91 8.97 -2.21 13.12 -2.60 12.48 6.11 10.53 4.03 -1.04 8.97 -1.82 11.05 -1.82 2.99 0 3.51 0.39 2.86 2.99 -1.43 5.98 -2.99 15.85 -2.60 16.24 0.26 0.26 3.38 -1.04 7.02 -2.86 10.92 -5.59 11.70 -5.20 12.09 7.02 l0.39 10.53 4.42 -3.38 c7.15 -5.20 8.19 -4.55 7.80 4.94 -0.26 6.76 0.39 9.23 3.51 15.07 5.33 10.14 5.85 21.18 1.30 30.41 -4.03 8.45 -11.70 14.81 -18.71 15.98 -12.99 2.08 -35.09 -5.33 -58.74 -19.49 -15.46 -9.23 -20.79 -10.66 -20.79 -5.46 0 10.53 2.47 16.24 11.70 27.03 15.20 17.54 22.35 33.27 20.27 44.44 -0.91 4.68 -10.01 16.37 -12.60 16.37 -0.65 0 -1.17 -4.03 -1.17 -9.10 0 -10.53 -2.99 -19.49 -6.50 -19.49 -1.82 0 -2.60 1.43 -3.25 5.59 -2.21 13.38 -11.83 30.41 -19.23 34.05 -2.86 1.43 -7.80 1.95 -18.32 1.82 -7.93 -0.13 -15.33 -0.39 -16.37 -0.52z m19.88 -22.35 c4.16 -6.63 8.32 -17.93 9.36 -25.73 0.52 -3.64 1.17 -7.67 1.56 -8.97 0.65 -2.21 0.13 -2.34 -5.33 -1.69 -9.49 1.30 -10.79 0 -5.07 -4.94 2.73 -2.34 6.89 -7.02 9.36 -10.27 l4.29 -6.11 -11.44 0.91 -11.57 0.91 6.11 -5.72 c5.59 -5.33 12.73 -17.41 12.73 -21.83 0 -1.43 -1.43 -1.56 -6.76 -1.04 -3.77 0.52 -8.32 1.17 -10.14 1.69 -2.99 0.91 -2.86 0.52 1.69 -4.55 5.33 -5.98 8.71 -12.60 8.71 -17.02 0 -1.43 0.91 -2.99 2.08 -3.51 2.34 -0.91 5.33 0.65 34.96 18.45 35.09 21.05 54.06 28.07 64.71 23.65 5.33 -2.34 8.58 -6.63 9.49 -12.86 l0.78 -4.42 -8.97 0 c-8.06 0.13 -9.75 -0.39 -19.23 -5.46 -27.55 -14.94 -63.28 -47.56 -82.13 -74.72 -5.20 -7.54 -6.11 -9.88 -6.50 -16.24 -0.91 -12.35 5.72 -19.49 20.79 -22.61 10.92 -2.34 9.23 -4.16 -2.73 -3.25 -16.63 1.30 -25.21 6.24 -27.94 16.11 -0.78 2.99 -1.82 5.59 -2.34 5.59 -1.17 0 -2.47 -4.94 -2.47 -9.75 0 -3.64 -0.78 -4.29 -12.99 -9.75 -7.15 -3.25 -12.73 -6.37 -12.60 -7.15 1.17 -3.51 27.29 -4.16 50.94 -1.30 8.58 1.04 20.40 1.95 26.38 1.95 6.89 0 10.53 0.52 10.01 1.30 -2.21 3.64 40.67 -2.34 69.52 -9.75 19.49 -4.94 33.27 -7.15 44.44 -7.15 10.27 0 15.07 1.30 17.02 4.68 1.56 2.60 5.20 2.21 9.23 -0.91 4.03 -3.25 4.29 -6.11 0.65 -10.79 -5.20 -6.63 -9.10 -7.54 -30.67 -7.80 -17.54 -0.13 -19.62 -0.39 -17.80 -2.08 1.30 -1.43 5.85 -2.08 15.85 -2.60 l13.90 -0.65 0.39 -5.46 c0.52 -6.63 -0.91 -9.62 -7.02 -14.29 -4.55 -3.38 -5.59 -3.51 -19.23 -3.64 -17.93 -0.26 -38.20 -5.07 -62.76 -15.07 -5.46 -2.21 -7.80 -0.13 -9.23 7.93 -1.69 10.01 -3.77 9.62 -15.98 -2.86 -8.97 -9.10 -12.22 -11.57 -17.80 -13.38 -7.15 -2.21 -20.01 -2.21 -25.60 0 -2.60 1.04 -2.60 1.04 -0.13 -1.69 6.24 -7.15 21.44 -7.15 35.87 0.26 9.62 4.81 11.96 4.42 4.81 -1.04 -14.29 -10.92 -32.49 -11.57 -45.61 -1.56 -2.21 1.69 -7.02 4.55 -10.79 6.50 -13.12 6.89 -16.76 14.42 -10.66 22.09 4.29 5.46 2.21 5.20 -5.46 -0.52 -3.77 -2.86 -8.19 -5.20 -9.88 -5.20 -3.64 0 -21.31 14.03 -24.95 19.88 -3.64 5.85 -3.51 8.97 0.65 13.12 5.85 5.72 20.27 8.97 47.69 10.66 8.45 0.39 15.07 1.04 14.68 1.43 -0.26 0.26 -9.23 1.43 -19.88 2.47 -35.48 3.51 -39.24 4.68 -42.75 12.99 -1.69 4.16 -1.69 5.07 0.78 10.66 1.56 3.38 6.37 9.88 10.79 14.42 7.54 7.67 7.80 8.19 4.16 7.28 -9.49 -2.21 -22.87 -13.77 -34.70 -30.28 -11.44 -15.72 -14.29 -14.42 -14.29 7.28 0 15.33 6.11 36.13 14.68 50.81 1.43 2.34 2.34 4.68 1.95 4.94 -2.47 2.47 -16.63 -8.32 -24.30 -18.45 -5.46 -7.28 -8.97 -9.10 -8.97 -4.68 0 3.64 7.02 30.15 13.64 51.59 3.25 10.27 5.85 18.97 5.85 19.49 0 0.39 -4.94 -3.12 -10.92 -7.80 -7.41 -5.72 -12.22 -8.58 -14.55 -8.58 l-3.51 0 0.65 12.73 c2.08 38.33 28.98 74.72 70.56 95.25 13.51 6.63 31.19 12.48 38.59 12.73 1.30 0.13 3.64 -2.08 5.33 -4.68z m110.20 -87.45 c2.08 -1.17 2.47 -2.86 2.47 -9.75 0 -4.68 -0.52 -8.45 -1.17 -8.45 -0.65 0 -4.81 2.99 -9.10 6.63 l-7.93 6.63 0 -11.83 c0 -7.28 -0.52 -11.83 -1.30 -11.83 -0.78 0 -5.59 2.08 -10.66 4.68 l-9.23 4.68 0.78 -3.90 c0.39 -2.08 1.17 -6.76 1.69 -10.53 l0.91 -6.63 -4.55 0 c-2.34 0 -7.41 0.78 -11.18 1.69 -3.64 1.04 -6.89 1.56 -7.15 1.30 -0.26 -0.13 0.39 -5.07 1.56 -10.79 1.04 -5.72 1.56 -10.66 1.04 -11.18 -0.39 -0.52 -5.59 0.13 -11.44 1.30 -5.85 1.17 -10.92 1.82 -11.18 1.56 -0.39 -0.26 0.13 -5.07 1.04 -10.40 0.78 -5.46 1.30 -10.14 1.04 -10.40 -1.04 -1.04 -18.19 1.43 -19.49 2.73 -1.04 1.04 1.69 4.81 9.62 13.64 22.74 25.08 60.82 56.14 74.20 60.30 6.76 2.08 6.89 2.08 10.01 0.52z m-49.51 -101.62 c1.56 -4.94 3.25 -8.84 3.90 -8.84 0.52 0 3.12 2.60 5.72 5.85 2.73 3.25 5.33 5.85 5.98 5.85 0.52 0 1.69 -2.86 2.60 -6.50 1.95 -8.06 4.16 -8.32 11.05 -1.30 2.73 2.86 5.72 5.20 6.50 5.20 0.91 0 2.08 -2.73 2.73 -6.11 1.56 -8.06 4.55 -8.71 11.83 -2.34 2.99 2.47 5.72 4.55 6.11 4.55 0.39 0 1.30 -3.51 2.21 -7.80 0.78 -4.29 2.08 -7.80 2.86 -7.80 0.65 0 4.94 2.08 9.49 4.55 4.42 2.47 8.58 4.55 9.23 4.55 0.65 0 1.95 -3.38 2.99 -7.41 1.04 -4.03 2.60 -7.54 3.38 -7.80 0.78 -0.26 4.29 1.82 7.80 4.81 3.51 2.86 6.63 5.20 7.15 5.20 0.39 0 1.30 -1.95 1.95 -4.16 1.56 -5.33 4.81 -6.11 6.76 -1.69 1.95 4.16 3.90 4.16 4.94 -0.26 1.95 -7.41 -4.29 -11.18 -16.37 -10.01 -4.55 0.39 -9.62 1.30 -11.31 1.95 -1.69 0.65 -7.02 1.82 -11.83 2.47 -4.81 0.78 -10.40 2.34 -12.48 3.38 -2.08 1.04 -5.33 1.82 -7.15 1.82 -1.82 0.13 -10.40 1.56 -18.97 3.38 -8.58 1.82 -23.52 4.16 -33.14 5.20 -23.91 2.60 -25.99 2.99 -25.99 4.55 0 2.21 17.28 19.49 18.32 18.45 0.39 -0.65 2.08 -4.94 3.77 -9.75z"/>
  <path d="M1337.81 400.89 c-26.90 -9.62 -63.93 -32.88 -78.49 -49.38 -5.20 -5.98 -11.18 -8.32 -14.03 -5.46 -1.82 1.82 -1.82 3.12 -0.39 10.27 0.78 4.42 2.73 10.40 4.16 13.25 l2.60 5.07 -3.77 -2.73 c-16.24 -11.57 -25.73 -36.13 -17.28 -45.09 3.25 -3.51 9.88 -5.85 16.37 -5.85 3.51 0 5.85 2.08 17.93 15.59 26.25 29.37 56.01 53.28 80.31 64.32 8.97 4.03 4.29 4.03 -7.41 0z"/>
  <path d="M1286.09 250.28 c-9.10 -3.25 -23.52 -15.07 -20.53 -16.89 0.65 -0.52 4.29 0.13 7.80 1.30 6.50 2.08 15.98 2.08 30.67 -0.13 l5.20 -0.78 -4.42 3.77 c-3.77 3.12 -4.03 3.90 -2.21 4.55 4.68 1.82 7.28 0.65 17.67 -7.54 13.64 -10.79 21.57 -13.77 38.07 -14.68 l12.60 -0.65 0 3.90 c0 5.72 -6.50 14.81 -14.68 20.40 -4.03 2.86 -7.80 4.68 -8.19 4.29 -0.52 -0.52 0.65 -4.29 2.60 -8.58 1.82 -4.16 3.38 -8.32 3.38 -9.10 0 -2.34 -13.38 -1.69 -19.23 0.91 -2.86 1.30 -8.58 5.20 -12.48 8.71 -14.03 12.22 -23.52 14.94 -36.26 10.53z"/>
  <path d="M1276.35 230.27 c-3.90 -2.08 -4.16 -2.60 -2.34 -4.03 1.17 -1.04 2.08 -3.64 2.08 -5.85 0 -4.81 3.12 -9.88 6.24 -9.88 1.82 0 2.21 1.30 2.21 6.50 0 8.84 1.56 10.14 8.97 7.28 7.41 -2.86 11.96 -8.58 9.88 -12.48 -5.72 -10.66 -26.38 -12.48 -37.68 -3.38 -1.82 1.43 0.13 -0.91 4.29 -5.07 l7.41 -7.80 8.19 0 c6.37 0 9.49 0.78 14.55 3.64 7.02 3.90 18.84 14.03 18.84 16.24 0 1.56 -8.84 8.97 -15.98 13.25 -7.02 4.16 -20.66 4.94 -26.64 1.56z"/>
  <path d="M1706.87 483.02 c-9.10 -2.47 -13.77 -5.07 -19.23 -11.18 -8.71 -9.62 -10.92 -16.37 -21.05 -62.76 -7.02 -32.62 -11.44 -42.10 -23.26 -50.03 -6.24 -4.29 -6.50 -4.29 -21.70 -4.29 -9.62 0 -15.59 0.52 -16.24 1.43 -0.39 0.78 -0.91 23.39 -0.91 50.29 -0.13 37.30 0.13 49.64 1.43 51.85 2.99 5.46 8.06 6.89 23.65 6.89 l14.29 0 0 8.45 0 8.45 -66.27 0 -66.27 0 0 -7.80 0 -7.80 10.79 -0.13 c13.38 0 18.84 -1.82 22.61 -7.54 l2.99 -4.42 0 -105.13 c0 -74.85 -0.39 -106.04 -1.43 -107.99 -3.25 -6.37 -6.11 -7.41 -20.92 -7.41 l-14.03 0 0 -8.45 0 -8.58 83.56 0.39 c81.74 0.52 83.69 0.52 93.82 3.38 25.08 7.02 40.93 18.58 49.64 36.39 4.29 8.58 4.94 11.05 5.33 21.70 0.65 13.64 -1.69 23.91 -7.15 32.49 -4.29 6.50 -17.15 20.14 -19.10 20.14 -0.78 0 -2.99 1.04 -4.68 2.21 -4.29 3.12 -22.74 8.97 -34.31 10.92 -14.94 2.60 -15.72 3.64 -5.20 6.89 12.86 4.16 17.15 6.76 25.34 15.07 9.49 9.75 20.14 31.06 26.51 53.28 6.63 22.61 8.45 27.42 11.83 30.80 8.06 8.06 16.37 -0.91 18.45 -19.62 l0.91 -7.93 8.32 -0.39 8.19 -0.39 -0.91 8.19 c-2.73 26.12 -11.05 41.19 -27.29 49.38 -6.63 3.38 -9.49 4.03 -19.49 4.42 -6.89 0.26 -14.42 -0.26 -18.19 -1.17z m-50.68 -151 c12.35 -5.07 22.87 -15.46 25.99 -25.47 2.99 -9.75 3.90 -27.68 1.95 -37.94 -4.42 -23.65 -17.93 -33.01 -49.51 -34.31 -17.93 -0.78 -24.69 0.52 -27.81 5.33 -2.34 3.51 -3.51 43.14 -2.34 75.24 l0.78 21.96 20.92 -0.52 c19.62 -0.52 21.57 -0.78 30.02 -4.29z"/>
  <path d="M291.34 474.70 l0.39 -7.54 14.29 -0.65 c15.46 -0.65 21.18 -2.73 23.91 -8.71 1.04 -2.21 1.43 -35.74 1.43 -109.55 l0 -106.43 -3.12 -3.64 c-3.12 -3.64 -3.38 -3.64 -19.49 -4.03 l-16.37 -0.52 0 -3.38 c0 -1.95 -0.39 -5.72 -0.78 -8.32 l-0.91 -4.94 67.83 0 67.70 0 0 8.45 0 8.45 -15.46 0 c-14.81 0 -15.72 0.13 -19.49 3.38 l-4.03 3.38 0 107.86 c0 71.47 0.39 108.64 1.30 110.33 2.73 4.81 8.19 6.37 23.39 6.37 l14.29 0 0 8.45 0 8.45 -67.57 0 -67.70 0 0.39 -7.41z"/>
  <path d="M450.92 475.87 c0 -7.15 1.56 -9.36 6.63 -9.36 10.40 0 24.04 -8.19 30.41 -18.19 7.15 -11.31 7.15 -11.05 7.15 -109.16 l0 -90.44 -4.81 -4.68 c-7.54 -7.28 -14.81 -10.14 -26.64 -10.14 l-10.14 0 0 -8.45 0 -8.45 41.19 0.26 41.19 0.39 30.54 39.11 c16.89 21.44 48.34 61.60 70.04 89.27 21.70 27.68 39.76 50.29 40.28 50.29 0.52 0 0.65 -29.63 0.52 -65.88 -0.52 -62.50 -0.65 -66.27 -3.12 -73.03 -3.51 -9.36 -11.44 -17.15 -21.05 -20.79 -4.03 -1.43 -9.10 -2.73 -11.18 -2.73 l-3.90 0 0 -8.45 0 -8.45 48.08 0 48.08 0 0 8.45 c0 7.93 -0.13 8.45 -2.99 8.45 -11.83 0 -26.12 9.10 -30.93 19.75 l-3.12 6.89 -0.39 110.85 -0.26 110.72 -10.40 0 -10.40 0 -8.32 -10.66 c-4.68 -5.98 -27.03 -34.83 -49.77 -64.06 -22.74 -29.37 -54.19 -69.91 -69.78 -90.05 -22.87 -29.50 -29.11 -36.65 -31.19 -36.39 -2.73 0.39 -2.73 0.78 -3.12 68.61 -0.39 73.81 0.26 84.73 5.72 95.77 5.98 12.22 18.19 19.88 31.97 19.88 l6.24 0 0 8.45 0 8.45 -53.28 0 -53.28 0 0 -6.24z"/>
  <path d="M760.20 474.44 l0 -7.54 14.03 -0.65 c9.62 -0.39 15.20 -1.30 18.06 -2.73 8.58 -4.55 8.19 1.04 8.19 -115.78 l0 -105.91 -3.12 -3.64 c-3.12 -3.64 -3.38 -3.64 -20.14 -4.03 l-17.02 -0.52 0 -8.32 0 -8.32 116.17 0 116.04 0 0.91 39.37 c0.52 21.57 1.17 41.97 1.69 45.48 l0.78 6.11 -8.45 0 -8.45 0 -0.78 -7.54 c-2.99 -28.07 -15.20 -51.46 -31.06 -59.52 -11.96 -6.11 -18.97 -7.02 -50.42 -7.02 -26.64 0 -29.63 0.26 -33.40 2.60 -2.21 1.30 -4.81 3.64 -5.46 5.07 -1.04 1.82 -1.30 17.54 -1.17 48.47 l0.39 45.87 12.35 0 c15.20 -0.13 23.52 -2.73 31.71 -9.88 7.15 -6.24 14.55 -20.53 16.76 -32.10 1.43 -7.54 1.82 -8.06 5.59 -8.84 2.21 -0.39 5.72 -0.52 7.80 -0.26 l3.77 0.39 0.39 61.47 0.26 61.34 -8.19 0 -8.32 0 -0.78 -9.36 c-1.43 -19.23 -10.27 -34.05 -24.43 -41.19 -7.41 -3.77 -9.10 -4.03 -21.31 -4.03 -8.45 0 -13.64 0.52 -14.68 1.56 -2.34 2.34 -2.21 96.55 0.13 101.10 0.91 1.69 3.64 4.55 5.98 6.11 4.03 2.73 5.98 2.99 19.75 2.99 l15.46 0 0 6.37 c0 3.51 0.39 7.28 0.78 8.45 0.78 1.82 -5.98 2.08 -69.52 2.08 l-70.30 0 0 -7.67z"/>
  <path d="M1799.78 474.44 l0 -7.54 14.29 -0.65 c15.46 -0.65 19.62 -2.21 23 -8.97 1.30 -2.34 1.69 -27.68 1.69 -109.42 l0 -106.43 -3.77 -3.77 c-3.77 -3.77 -3.90 -3.77 -19.49 -3.77 l-15.72 0 0 -8.45 0 -8.45 114.35 0 114.35 0 0 4.94 c0 5.85 3.51 64.71 4.68 77.97 l0.78 9.36 -7.93 0 c-5.33 0 -8.19 -0.52 -8.45 -1.56 -0.26 -0.91 -1.95 -8.32 -3.90 -16.37 -7.67 -33.01 -20.79 -49.25 -44.31 -55.49 -5.72 -1.43 -14.68 -1.95 -35.87 -1.95 -27.03 0 -28.20 0.13 -32.49 2.99 -2.34 1.56 -4.68 4.29 -5.20 6.11 -1.17 4.16 -1.43 70.17 -0.26 84.34 l0.78 10.92 12.48 -0.65 c15.33 -0.78 23.78 -4.03 31.32 -12.22 6.37 -6.89 9.62 -14.03 12.35 -27.03 1.04 -5.33 1.95 -10.14 1.95 -10.53 0 -0.39 3.51 -0.65 7.80 -0.65 l7.80 0 0 61.73 0 61.73 -7.54 0 -7.67 0 -1.56 -10.66 c-3.90 -25.73 -11.70 -37.17 -29.24 -43.01 -7.54 -2.60 -25.47 -2.99 -27.81 -0.65 -1.17 1.17 -1.56 13.64 -1.43 49.12 0.13 26.12 0.52 48.86 1.04 50.68 0.52 1.82 2.86 4.55 5.20 6.11 4.29 2.86 5.46 2.99 31.71 2.99 20.53 0 29.11 -0.52 35.22 -2.08 28.98 -7.54 48.86 -32.23 56.01 -69.78 1.04 -5.85 2.73 -11.05 3.64 -11.57 0.78 -0.52 4.42 -1.04 7.93 -1.04 l6.37 0 -0.78 21.83 c-0.52 11.96 -1.30 34.70 -1.82 50.68 l-0.78 28.85 -119.42 0 -119.29 0 0 -7.67z"/>
  <path d="M2049.28 474.44 l0 -7.80 6.24 -0.78 c12.86 -1.69 23.39 -7.41 34.96 -18.71 5.85 -5.85 30.15 -34.70 61.08 -72.64 7.67 -9.49 12.86 -16.89 12.35 -17.80 -4.55 -7.54 -88.23 -117.60 -90.96 -119.55 -2.60 -1.95 -6.11 -2.73 -13.51 -3.12 l-10.14 -0.39 0 -8.32 0 -8.32 64.97 0 64.97 0 0 8.45 0 8.45 -10.66 0 c-17.54 0 -23.52 4.68 -18.45 14.55 1.17 2.34 11.70 17.41 23.26 33.53 11.57 16.11 21.83 30.54 22.87 32.23 1.04 1.56 2.21 2.73 2.73 2.60 2.34 -0.91 37.81 -45.35 41.32 -51.98 10.01 -18.71 4.55 -30.93 -14.29 -30.93 l-7.80 0 0 -8.45 0 -8.45 51.98 0 51.98 0 0 8.45 0 8.45 -7.28 0 c-10.66 0 -16.50 2.21 -25.21 9.62 -10.27 8.71 -78.23 90.44 -76.80 92.26 0.65 0.78 15.07 20.14 31.97 43.01 57.57 77.32 60.04 80.57 64.45 83.17 2.73 1.56 7.80 2.86 12.86 3.25 l8.45 0.65 0.39 8.19 0.39 8.06 -64.45 0 -64.32 0 0 -7.80 0 -7.80 6.89 0 c15.46 -0.13 24.30 -4.42 24.30 -11.83 0 -2.34 -4.16 -9.10 -13.25 -21.57 -7.41 -10.01 -19.49 -26.77 -27.03 -37.17 -7.54 -10.53 -14.55 -18.97 -15.72 -19.10 -2.34 0 -40.67 46.78 -45.09 55.10 -1.69 2.99 -3.25 8.71 -3.64 12.60 -1.30 13.12 6.24 20.66 20.53 20.66 l7.54 0 0 8.45 0 8.45 -53.93 0 -53.93 0 0 -7.67z"/>
 </g>
 <g fill="#a2a2a2">
  <path d="M1243.86 535.26 c-29.50 -4.03 -58.09 -15.46 -81.61 -32.75 -20.40 -14.94 -50.94 -50.29 -45.35 -52.37 1.30 -0.52 3.12 0.52 4.81 2.86 17.67 22.87 51.20 45.87 79.40 54.45 57.57 17.41 118.12 2.60 161.27 -39.37 24.69 -24.17 39.37 -51.33 47.04 -87.32 3.25 -15.07 3.12 -48.34 -0.13 -63.02 -3.51 -15.98 -4.03 -14.81 8.32 -18.97 6.11 -1.95 11.44 -3.38 11.96 -2.99 1.17 0.65 5.46 14.81 8.58 28.46 3.38 14.94 3.38 55.23 -0.13 70.82 -7.93 36 -23.26 64.45 -48.73 89.66 -25.60 25.60 -54.71 41.45 -89.53 48.86 -11.96 2.47 -42.62 3.51 -55.88 1.69z"/>
  <path d="M1603.82 361.65 l-0.26 -8.19 15.33 0.26 15.20 0.26 -14.29 0.65 -14.29 0.78 -0.78 7.15 -0.78 7.15 -0.13 -8.06z"/>
 </g>
</svg>